<svg width="314" height="314" viewBox="0 0 314 314" fill="none" xmlns="http://www.w3.org/2000/svg">
<path d="M51.2697 38.3193L43.2725 29.2598C39.6402 29.5812 39.9403 30.2893 40.3846 37.4957C40.8289 44.7022 54.824 79.2934 60.3777 89.3825C65.9313 99.4716 80.5929 100.501 80.5929 100.501C80.5929 100.501 74.3729 101.736 67.4863 98.8539C60.5998 95.9713 80.5929 105.649 84.3694 106.678C88.1459 107.708 86.813 119.444 86.813 119.444L89.7009 123.562C89.7009 123.562 90.1601 121.709 88.8123 112.443C87.4646 103.178 58.6005 50.2615 58.6005 50.2615L88.8123 105.649C88.8123 105.649 93.2552 85.8822 89.7009 76.6167C86.1466 67.3512 81.9258 63.8509 82.8144 66.9394C83.703 70.0279 76.8165 74.3518 76.8165 74.3518C76.8165 74.3518 77.705 72.0869 78.8158 66.9394C79.9265 61.7919 65.0427 37.4957 65.0427 37.4957C65.0427 37.4957 66.3756 44.7022 65.0427 46.7612C63.7099 48.8202 62.8213 39.5547 61.2663 35.6426C59.7112 31.7306 45.9382 28.0244 45.9382 28.0244L51.2697 38.3193Z" fill="black" stroke="black" stroke-width="0.543576"/>
<path d="M217.138 108.356C210.736 106.098 206.022 106.678 205.603 95.3516C205.183 84.0256 211.828 84.3721 217.138 78.3625C223.492 71.1716 226.24 62.4221 234.337 62.4221C243.147 62.4221 247.583 71.4004 253.634 78.3625C258.924 84.4507 265.799 85.7035 265.379 95.3516C264.96 105 260.01 105.871 253.634 108.356C246.531 111.123 240.63 105.21 234.337 105.419C228.045 105.629 223.564 110.622 217.138 108.356Z" fill="black" stroke="black" stroke-width="0.543576"/>
<ellipse cx="202.158" cy="65.808" rx="9.4384" ry="14.0527" transform="rotate(-16.2521 202.158 65.808)" fill="black"/>
<ellipse cx="9.4384" cy="14.0527" rx="9.4384" ry="14.0527" transform="matrix(-0.96004 -0.279863 -0.279863 0.96004 280.88 55.1205)" fill="black"/>
<ellipse cx="10.8573" cy="16.1653" rx="10.8573" ry="16.1653" transform="matrix(-0.999935 -0.0113835 -0.0113835 0.999935 233.347 28.2715)" fill="black"/>
<ellipse cx="10.8573" cy="16.1653" rx="10.8573" ry="16.1653" transform="matrix(-0.999935 -0.0113835 -0.0113835 0.999935 258.935 28.2715)" fill="black"/>
<path d="M40.0298 254.569C40.983 271.488 50.2254 281.25 64.5739 281.972C83.0701 282.904 101.033 262.909 85.7819 239.556C70.5312 216.204 70.69 205.957 72.4375 200C61.2378 209.452 39.0766 237.65 40.0298 254.569Z" fill="black" stroke="black" stroke-width="0.426867"/>
<path d="M52.421 265.769C57.3867 273.271 65.0134 273.156 70.5312 273.156C65.7024 276.352 54.225 275.315 49.2593 267.813C44.2936 260.31 47.5922 249.186 52.421 245.99C50.3499 251.88 47.4553 258.266 52.421 265.769Z" fill="white"/>
<path d="M213.563 208.27C203.82 230.723 211.448 238.764 211.448 238.764C211.448 238.764 221.02 241.943 238.072 224.258" stroke="black" stroke-width="8.27992" stroke-linecap="round"/>
<path d="M263.441 240.807C253.698 263.26 261.325 271.3 261.325 271.3C261.325 271.3 270.897 274.479 287.95 256.794" stroke="black" stroke-width="8.27992" stroke-linecap="round"/>
<path d="M235.694 257.032C225.951 279.485 233.579 287.525 233.579 287.525C233.579 287.525 243.151 290.704 260.203 273.02" stroke="black" stroke-width="8.27992" stroke-linecap="round"/>
<path d="M238.502 224.539C228.759 246.992 236.386 255.032 236.386 255.032C236.386 255.032 245.958 258.211 263.011 240.526" stroke="black" stroke-width="8.27992" stroke-linecap="round"/>
<path d="M210.756 240.764C201.013 263.217 208.64 271.257 208.64 271.257C208.64 271.257 218.212 274.436 235.264 256.752" stroke="black" stroke-width="8.27992" stroke-linecap="round"/>
<path d="M265.764 209.254C256.021 231.707 263.648 239.747 263.648 239.747C263.648 239.747 273.22 242.926 290.273 225.242" stroke="black" stroke-width="8.27992" stroke-linecap="round"/>
<path d="M240.825 192.986C231.082 215.439 238.709 223.479 238.709 223.479C238.709 223.479 248.281 226.658 265.334 208.973" stroke="black" stroke-width="8.27992" stroke-linecap="round"/>
<rect y="139.485" width="314" height="35.0304" rx="17.1968" fill="#1BA970"/>
<rect x="139.485" y="314" width="314" height="35.0304" rx="17.1968" transform="rotate(-90 139.485 314)" fill="#1BA970"/>
</svg>
